<svg width="71" height="20" viewBox="0 0 71 20" xmlns="http://www.w3.org/2000/svg"><path d="M12.258 6.76s.081-1.593-2.059-1.707H8.138v3.718h1.754s2.366-.03 2.366-2.01zm-1.416 4.281H8.138v3.93h2.704s2.704.127 2.704-2.047c0 0 .082-1.898-2.704-1.883zm5.345 2.094c0 4.041-4.756 4.056-4.83 4.056H5.58V2.816h5.041c4.543.42 4.263 3.848 4.263 3.848.016 2.092-1.835 2.88-1.835 2.88 3.251.821 3.139 3.591 3.139 3.591zM0 20h21.225V0H0v20zM36.726 6.76s.081-1.593-2.061-1.707h-2.06v3.718h1.755s2.366-.03 2.366-2.01zm-1.416 4.281h-2.704v3.93h2.704s2.704.127 2.704-2.047c0 0 .08-1.898-2.704-1.883zm5.343 2.094c0 4.041-4.756 4.056-4.83 4.056h-5.777V2.816h5.042c4.543.42 4.261 3.848 4.261 3.848.017 2.092-1.835 2.88-1.835 2.88 3.253.821 3.139 3.591 3.139 3.591zM24.476 20H45.7V0H24.476v20zm12.25-13.24s.081-1.593-2.061-1.707h-2.06v3.718h1.755s2.366-.03 2.366-2.01zm-1.416 4.281h-2.704v3.93h2.704s2.704.127 2.704-2.047c0 0 .08-1.898-2.704-1.883zm0 0h-2.704v3.93h2.704s2.704.127 2.704-2.047c0 0 .08-1.898-2.704-1.883zm-.645-5.988h-2.06v3.718h1.755s2.366-.03 2.366-2.01c0 0 .081-1.594-2.061-1.708zm31.31 10.995s-4.364 2.592-9.417.595c0 0-4.25-1.553-4.412-6.643 0 0-.176-5.237 5.49-6.975 0 0 1.512-.58 4.234-.32 0 0 1.624.16 3.975 1.14v2.657s-2.592-1.594-5.457-1.625c0 0-5.345-.104-5.586 5.123 0 0-.193 4.808 5.523 5.082 0 0 2.397.29 5.65-1.787v2.753zM48.95 20h21.225V0H48.95v20z" fill="#B9B9B9" fill-rule="evenodd"/></svg>
