<svg width="87" height="20" viewBox="0 0 87 20" xmlns="http://www.w3.org/2000/svg" xmlns:xlink="http://www.w3.org/1999/xlink"><defs><path id="a" d="M33.587 18.796V.374H0v18.422h33.587z"/></defs><g fill="none" fill-rule="evenodd"><g transform="translate(0 1.053)"><mask id="b" fill="#fff"><use xlink:href="#a"/></mask><path d="M9.01 4.937c.489.802 1.13 1.589 1.9 2.33 1.473 1.42 3.38 2.655 5.535 3.558 3.31 1.387 6.755 1.807 9.453 1.195l1.294-.294-1.222-.512L9.546 4.326l-1.223-.513.686 1.124zm.736-.44l-.536.612 16.423 6.888.072-.806c-2.51.57-5.772.172-8.924-1.15-2.057-.861-3.875-2.038-5.27-3.384a11.001 11.001 0 0 1-1.765-2.16zM22.07 3.5c-.568.137-1.454.012-2.343-.359-1.344-.566-2.177-1.49-1.996-1.914a.32.32 0 0 1 .063-.088l-.312-.294-.237.355 4.69 3.068.135-.768zm.204.826l.956-.231-.82-.537L17.72.491l-.301-.197-.249.258c-.096.1-.172.211-.228.337-.438 1.021.72 2.307 2.449 3.035 1.048.438 2.115.588 2.883.402zm.258-1.21a.306.306 0 0 1-.024.114c-.05.114-.19.211-.436.27l.1.413.305.3.79-.783-.305-.3-.43-.015zm.86.027l.036-1.078-.771.764-.79.784-1.071 1.062 1.476-.348c.49-.116.859-.372 1.028-.763.057-.134.087-.274.092-.42zm-3.485.687c.153 4.39-1.668 9.64-5.946 14.298l.717.448 6.057-14.6-.828-.146zm.86-.03l-.069-1.976-.76 1.83-6.056 14.599-.93 2.24L14.6 18.7c4.433-4.827 6.329-10.294 6.168-14.9zm-2.214-.928c-3.463 3.088-6.126 8.234-6.56 14.734l-.16 2.415.984-2.216 6.418-14.447.806-1.814-1.488 1.328zm.576.631l-.682-.487-6.418 14.447.824.199c.418-6.273 2.975-11.215 6.276-14.159zm2.655.612c1.082 2.056 1.419 5.651.6 7.663l-.017.05a3.98 3.98 0 0 1-.104.31 8.38 8.38 0 0 1-.385.874c-.462.912-1.1 1.825-1.94 2.678-1.075 1.09-2.405 2-4.019 2.672l.566.552 6.08-14.835-.781.036zm.764-.392l-.431-.818-.35.854-6.08 14.836-.388.949.955-.398c1.722-.717 3.146-1.693 4.3-2.863a11.588 11.588 0 0 0 2.094-2.89c.303-.597.477-1.067.552-1.347l-.017.05c.918-2.256.557-6.108-.635-8.373zm-5.196-2.164c-2.473.732-5.513 3.146-6.514 5.357l.025-.047a4.88 4.88 0 0 0-.206.387 9.394 9.394 0 0 0-.429 1.047c-.85 2.468-.92 5.345.291 8.44l.374.956.42-.938L17.87 2.138l.38-.845-.897.266zm.247.814l-.517-.58-6.555 14.624.795.019c-1.133-2.895-1.068-5.569-.28-7.859.125-.362.258-.68.39-.952.078-.16.137-.266.167-.315l.025-.047c.893-1.972 3.73-4.225 5.975-4.89zM7.473 8.916c1.308 2.447 3.931 4.67 7.198 6.039 3.255 1.366 6.68 1.688 9.368.929l1.168-.33-1.117-.47L8.022 8.326l-1.115-.47.566 1.06zm.761-.397l-.549.59 16.067 6.757.05-.8c-2.488.703-5.713.4-8.795-.894-3.093-1.297-5.562-3.39-6.773-5.653zm4.486-6.731c.74 1.989 2.793 3.886 5.458 5 2.663 1.12 5.47 1.261 7.432.405l.91-.397-.916-.383L13.293 1.25l-.915-.384.342.922zm.808-.293l-.572.538 12.312 5.163-.006-.78c-1.726.752-4.29.622-6.748-.41-2.46-1.03-4.336-2.762-4.986-4.511zm-.369 16.977c4.842 2.03 10.429-.2 12.486-4.984 2.053-4.783-.205-10.305-5.044-12.339-4.841-2.028-10.432.204-12.486 4.985-2.054 4.785.203 10.309 5.044 12.338zm.336-.783c-4.403-1.846-6.456-6.87-4.588-11.223 1.869-4.349 6.954-6.379 11.357-4.534 4.402 1.85 6.456 6.873 4.589 11.223-1.871 4.351-6.954 6.38-11.358 4.534zM33.86 3.907V.824h-3.12v3.083h2.22c0 1.208-.993 2.19-2.22 2.19v.892c1.724 0 3.12-1.382 3.12-3.082M29.868 3.907V.824h-3.12v3.083h2.217c0 1.208-.993 2.19-2.217 2.19v.892c1.722 0 3.12-1.382 3.12-3.082M-.097 3.455v3.082h3.12V3.455H.805c0-1.21.993-2.19 2.216-2.19V.371c-1.72 0-3.12 1.381-3.12 3.083M3.898 3.455v3.082h3.12V3.455h-2.22c0-1.21.993-2.19 2.22-2.19V.371c-1.725 0-3.12 1.381-3.12 3.083" fill="#B9B9B9" mask="url(#b)"/></g><g fill="#B9B9B9"><path d="M43.363 19.483h-5.468V1.62h7.18c1.723 0 3.642.05 5.167.933 1.635.99 2.61 2.768 2.61 4.688 0 1.698-.644 3.312-1.948 4.378-1.363 1.125-3.105 1.384-4.797 1.384h-2.744v6.481M44.772 9.17c1.23 0 2.716-.076 2.716-1.749 0-1.585-1.333-1.718-2.563-1.718h-1.562v3.467h1.409M65.166 19.483l-2.563-6.819H60.91v6.82h-5.468V1.618h8.95c1.542 0 3.236.203 4.542 1.098 1.465.93 2.155 2.523 2.155 4.263 0 2.345-1.02 3.755-3.102 4.717l3.177 7.786h-5.998M62.877 8.834c1.184 0 2.592-.183 2.592-1.721 0-.595-.303-1.17-.84-1.458-.466-.232-1.032-.232-1.543-.232H60.91v3.411h1.967M72.99 19.493h5.439V1.62h-5.44zM84.585 5.124l-.632-1.52h-.957v1.52h-.436V1.619h1.296c.274 0 .548.038.785.211a.993.993 0 0 1 .371.77c0 .41-.247.786-.654.901l.681 1.623h-.454M83.8 3.25c.236 0 .427-.018.595-.202a.608.608 0 0 0 .18-.449c0-.212-.075-.376-.246-.49-.15-.107-.293-.117-.473-.117h-.86V3.25h.804"/><path d="M83.602.337c1.278 0 2.312 1.046 2.312 2.337 0 1.299-1.03 2.34-2.312 2.34-1.276 0-2.305-1.042-2.305-2.34 0-1.29 1.033-2.337 2.305-2.337zm0-.337c-1.455 0-2.637 1.199-2.637 2.674 0 1.484 1.178 2.677 2.637 2.677 1.465 0 2.643-1.192 2.643-2.677C86.245 1.197 85.063 0 83.602 0z"/></g></g></svg>
