<svg width="57" height="20" viewBox="0 0 57 20" xmlns="http://www.w3.org/2000/svg"><g fill="#B9B9B9" fill-rule="evenodd"><path d="M13.132 12.603v.273l.16 1.998 1.637-1.05.064-1.22h-1.86zm-3.732.02v.253l.287 4.308a13.25 13.25 0 0 0 1.361-.867l.192-2.997v-.717l-1.84.02zm-7.518-8.95l-.042.232.042 5.923 13.09-.02v-.07l-.043-7.135-1.829.142-.02 6.68-1.82-.01-.042-6.509-1.85.151-.021.051.032 6.246-.032.07-1.84-.01-.042-6.195-1.83.141v6.035l-.042.03-1.84-.01-.031-5.893-1.84.151zm-.925 6.57v.362h14.015l-.022-.373-13.993.01zM13.972 0l-.701.131L7.58.95h-.074l-5.646.837-.042.03.02 1.524h.362L14.93 2.13l.043-.072V.091c.01-.08.074 0 .117 0l1.7 1.09.054 13.41-.191.162L8.464 20a36.379 36.379 0 0 1-1.318-.838l.383-6.538-.043-.03H5.668l-.053.05.36 5.772-2.434-1.544.234-4.248-.042-.03h-1.83l-.042.03.213 3.289-.362-.202-1.648-1.05-.022-3.218 14.93-.02.021-.394-14.95-.02L0 2.785.021 0h13.951zM33.603 1.826c2.455-2.096 6.332-2.25 9.314-1.16l1.105.546c-.105.528-.333 1.09-.474 1.653-.333-.034-.438-.477-.719-.648C41.27.684 38.655.445 36.638 1.178c-2.263.903-3.473 3.203-3.666 5.435-.14 2.778.403 5.52 2.911 7.089 1.877 1.294 4.894 1.363 6.858.17l.965-.767h.14c0 .528-.263 1.005-.35 1.516-2.754 1.16-6.665 1.21-9.156-.528-2.666-1.687-3.613-4.464-3.35-7.48.21-1.874 1-3.544 2.613-4.787"/><path d="M46.087 1.826C48.542-.27 52.419-.424 55.4.666l1.106.546c-.106.528-.333 1.09-.474 1.653-.333-.034-.438-.477-.72-.648-1.56-1.533-4.173-1.772-6.19-1.039-2.263.903-3.473 3.203-3.666 5.435-.141 2.778.403 5.52 2.91 7.089 1.877 1.294 4.895 1.363 6.859.17l.965-.767h.14c0 .528-.263 1.005-.35 1.516-2.754 1.16-6.666 1.21-9.156-.528-2.667-1.687-3.614-4.464-3.35-7.48.21-1.874 1-3.544 2.613-4.787M22.97 3.035l-.034 4.6.088.068c2.051.103 4.191-.153 5.121-2.061.473-.989.509-2.454-.158-3.374-1.14-1.5-3.174-1.125-4.929-1.142l-.087 1.909zM25.217.342c1.771-.05 3.771.103 4.753 1.773.544 1.04.614 2.572.07 3.612-1.298 2.606-4.297 2.743-7.015 2.64l-.053 3.988.158 2.914H21.2l.123-3.988-.087-8.553c-.088-.784-.088-1.602-.124-2.386h4.105z"/></g></svg>
