<svg width="29" height="20" viewBox="0 0 29 20" xmlns="http://www.w3.org/2000/svg"><g fill="none" fill-rule="evenodd"><path d="M10.774 0L0 11.368v4.597h11.67v4.01h6.586v-4.136h1.43l.598-4.471h-2.328V0h-7.182zm.693 6.737v4.7H7.23l4.236-4.7z" fill="#858585"/><g fill="#B9B9B9"><path d="M24.561 12.52c.215.445.09 1.028-.135 1.427l-1.732 4.008-.014.019-.626-4.066c-.05-.39.356-.557.593-.744-.011-.057-.073-.054-.112-.081l-.585-.007-.017-.017c.003-.506.267-.973.714-1.217.467-.279 1.126-.202 1.533.155.163.15.302.326.381.523M21.372 12.381c.14.269.223.574.173.913l-.705 4.655c.002.006-.004.012-.01.015l-.182-.375-1.77-4.065a1.438 1.438 0 0 1 .358-1.446c.373-.39.988-.496 1.477-.285.258.115.505.327.659.588M27.122 14.34c.238.418.186 1.05-.08 1.437-.164.273-.436.409-.664.588l-3.666 2.587h-.01l.043-.123 1.943-4.512c.29-.533.847-.802 1.435-.72.402.076.804.344.999.743M18.792 14.317l2.024 4.635h-.033l-4.079-2.89a1.406 1.406 0 0 1-.442-1.444 1.43 1.43 0 0 1 .826-.94 1.377 1.377 0 0 1 1.704.639M28.186 17.613c.203.441.123 1.047-.168 1.422-.288.36-.673.556-1.125.544l-4.348.003 3.642-2.607c.356-.236.898-.278 1.285-.088.3.122.582.423.714.726M15.312 17.613c-.203.441-.123 1.047.167 1.422.29.36.674.556 1.126.544l4.349.003-3.644-2.607c-.355-.236-.896-.278-1.284-.088-.3.122-.582.423-.714.726"/></g></g></svg>
