<svg width="106" height="20" viewBox="0 0 106 20" xmlns="http://www.w3.org/2000/svg"><g fill="#B9B9B9" fill-rule="evenodd"><path d="M5.215 9.995c0-2.655 2.168-4.817 4.823-4.817a4.82 4.82 0 0 1 4.814 4.817c0 2.663-2.158 4.828-4.814 4.828a4.833 4.833 0 0 1-4.823-4.828zm-4.997 0c0 5.416 4.406 9.82 9.82 9.82 5.408 0 9.812-4.404 9.812-9.82 0-5.414-4.404-9.817-9.812-9.817-5.414 0-9.82 4.403-9.82 9.817zM29.357 5.316l-.65-2.233h-.02l-.702 2.233h1.372zM27.601.66h2.182l2.64 7.243h-2.315l-.305-1.035h-2.304l-.325 1.035H24.93L27.6.659zM32.856.66h3.177l1.036 4.26h.02L38.122.66h3.176v7.242h-2.108V3.256h-.023L37.91 7.902h-1.663l-1.259-4.646h-.02v4.646h-2.112V.659M42.395.66h5.998v1.855H44.63v.906h3.418v1.72H44.63v.906h3.875v1.855h-6.11V.659M51.722 3.825h1.166c.416 0 .986-.072.986-.722 0-.457-.255-.718-1.108-.718h-1.044v1.44zM49.488.66h4.254c1.266 0 2.363.7 2.363 2.07 0 .751-.345 1.542-1.086 1.816.61.233.985.902 1.066 1.804.03.356.042 1.22.243 1.553h-2.232c-.111-.364-.151-.74-.182-1.116-.061-.691-.123-1.41-1.004-1.41h-1.188v2.526h-2.234V.659zM56.957 7.903h2.234V.659h-2.234zM64.853 3.357c-.04-.265-.243-1.065-1.167-1.065-1.046 0-1.381 1.014-1.381 1.988 0 .977.335 1.99 1.381 1.99.75 0 1.045-.528 1.177-1.207h2.192c0 1.459-1.188 3.014-3.309 3.014-2.343 0-3.673-1.657-3.673-3.797 0-2.282 1.44-3.795 3.673-3.795 1.991.01 3.086 1.055 3.278 2.872h-2.171M71.703 5.316l-.65-2.233h-.02l-.7 2.233h1.37zM69.947.66h2.181l2.64 7.243h-2.314l-.306-1.035h-2.302l-.325 1.035h-2.243l2.67-7.243zM75.225.66h2.282l2.111 3.875h.02V.659h2.11v7.243h-2.172l-2.223-3.957h-.018v3.957h-2.11V.659M27.31 15.42h.862c.579 0 1.189-.04 1.189-.768 0-.662-.507-.701-1.057-.701h-.994v1.469zm-2.233-3.328h3.734c1.968 0 2.659 1.439 2.659 2.475 0 1.755-1.175 2.58-2.842 2.58H27.31v2.188h-2.233v-7.243zM38.745 16.535c0 2.01-1.086 2.973-3.295 2.973-2.215 0-3.31-.963-3.31-2.973v-4.443h2.233v3.948c0 .74 0 1.666 1.085 1.666 1.056 0 1.056-.927 1.056-1.666v-3.948h2.231v4.443M42.055 17.61h1.308c.468 0 .873-.133.873-.685 0-.428-.254-.664-.781-.664h-1.4v1.35zm0-2.698h1.177c.466 0 .76-.132.76-.6 0-.361-.304-.494-.76-.494h-1.177v1.094zm-2.232-2.82h3.967c1.906 0 2.312 1.075 2.312 1.817 0 .73-.353 1.124-.893 1.418.651.226 1.26.744 1.26 1.808 0 1.454-1.26 2.2-2.537 2.2h-4.11v-7.243zM47.29 12.092h2.234v5.385h3.206v1.858h-5.44v-7.243M53.634 19.336h2.231v-7.244h-2.231zM61.528 14.787c-.042-.26-.243-1.06-1.168-1.06-1.045 0-1.38 1.014-1.38 1.987 0 .977.335 1.992 1.38 1.992.752 0 1.046-.53 1.177-1.209h2.193c0 1.462-1.186 3.011-3.31 3.011-2.343 0-3.673-1.65-3.673-3.794 0-2.281 1.442-3.795 3.673-3.795 1.99.01 3.087 1.055 3.28 2.868h-2.172M67.94 12.092h3.177l1.036 4.26h.02l1.034-4.26h3.177v7.243h-2.111v-4.644h-.02l-1.258 4.644H71.33l-1.26-4.644h-.018v4.644H67.94v-7.243M77.478 12.092h6v1.859h-3.766v.902h3.42v1.72h-3.42v.904h3.876v1.858h-6.11v-7.243M86.805 17.477h.874c1.39 0 1.593-1.124 1.593-1.804 0-.456-.142-1.722-1.757-1.722h-.71v3.526zm-2.232-5.385h3.663c2.415 0 3.268 1.786 3.268 3.612 0 2.224-1.176 3.631-3.705 3.631h-3.226v-7.243zM92.417 19.336h2.231v-7.244h-2.23zM99.51 16.75l-.65-2.233h-.02l-.7 2.234h1.37zm-1.755-4.658h2.183l2.637 7.243h-2.312l-.306-1.03h-2.303l-.325 1.03h-2.244l2.67-7.243zM104.396 13.205l.415-1.086h.427v1.531h-.277v-1.197h-.007l-.459 1.197h-.209l-.457-1.197h-.006v1.197h-.28v-1.53h.432l.421 1.085zm-1.165-.844h-.47v1.289h-.296v-1.29h-.468v-.24h1.234v.24z"/></g></svg>
