<?xml version="1.0" encoding="utf-8"?><svg xmlns="http://www.w3.org/2000/svg" xmlns:xlink="http://www.w3.org/1999/xlink"><symbol viewBox="0 0 24 24" id="icon_filled-checkmark"><path d="M23.576.183a1 1 0 0 0-1.393.242L7.367 21.452l-5.66-5.66a1 1 0 1 0-1.414 1.414l6.5 6.5a1 1 0 0 0 1.524-.13l15.5-22a1 1 0 0 0-.24-1.393z"/></symbol><symbol viewBox="0 0 24 24" id="icon_line-article"><g fill="none" stroke="#000" stroke-linecap="round" stroke-linejoin="round" stroke-miterlimit="10"><path d="M.5 2.5h23v18H.5z"/><path d="M2.5 5.5h19v3h-19zm2 6h6m-7 2h7m-7 2h7m-7 2h7m3-6h7m-7 2h7m-7 2h7m-7 2h6"/></g></symbol><symbol viewBox="0 0 24 24" id="icon_line-audio"><g stroke="#000" stroke-linecap="round" stroke-linejoin="round" stroke-miterlimit="10" fill="none"><path class="cpath" d="M4.5 11A7.5 7.5 0 0 1 12 3.5a7.5 7.5 0 0 1 7.5 7.5M4.5 11a4 4 0 0 0 0 8v-8zm15 0a4 4 0 0 1 0 8v-8zm-2 4.5H16l-1.5 3-1.5-7-2 5-1.5-3-1.5 2H6.5"/></g></symbol><symbol viewBox="0 0 24 24" id="icon_line-comment"><path fill="none" stroke="#000" stroke-linejoin="round" stroke-miterlimit="10" d="M23.5 10.883c0 5.18-5.148 9.383-11.5 9.383-1.418 0-2.775-.21-4.03-.593L1.364 22.75l2.588-5.167C1.823 15.88.5 13.507.5 10.883.5 5.7 5.65 1.5 12 1.5s11.5 4.2 11.5 9.383z"/><path fill="none" d="M0 0h24v24H0z"/></symbol><symbol viewBox="0 0 24 24" id="icon_line-document"><g fill="none" stroke="#000" stroke-linecap="round" stroke-linejoin="round" stroke-miterlimit="10"><path d="M20.5 23.5h-17V.5h11l6 6z"/><path d="M14.5.5v6h6m-13 1H12m-4.5 3h9m-9 3h9m-9 3h9m-9 3h9"/></g><path fill="none" d="M0 0h24v24H0z"/></symbol><symbol viewBox="0 0 24 24" id="icon_line-infographic"><g fill="none" stroke="#000" stroke-linecap="round" stroke-linejoin="round" stroke-miterlimit="10"><path d="M23.5 23.5H.5V.5"/><circle cx="7.5" cy="16.5" r="1.5"/><path d="M16.916 8.314l4.076-5.206M9.932 7.462l4.62 1.648M.5 11.78l6.72-4.004m9.08 7.976l4.404-2.496M9 16.5h4.5M.5 21l5.712-3.734"/><circle cx="8.5" cy="7" r="1.5"/><circle cx="16" cy="9.5" r="1.5"/><circle cx="22" cy="2" r="1.5"/><circle cx="22" cy="12.5" r="1.5"/><circle cx="15" cy="16.5" r="1.5"/></g><path fill="none" d="M0 0h24v24H0z"/></symbol><symbol viewBox="0 0 24 24" id="icon_line-listen-live"><g fill="none" stroke="#000" stroke-linejoin="round" stroke-miterlimit="10"><path stroke-linecap="round" d="M3.868 3.868C1.788 5.948.5 8.824.5 12s1.287 6.05 3.368 8.133M6.696 6.697A7.484 7.484 0 0 0 4.5 12c0 2.07.84 3.945 2.196 5.304m2.83-7.78C8.89 10.16 8.5 11.035 8.5 12s.392 1.842 1.025 2.475M20.132 3.868C22.212 5.948 23.5 8.824 23.5 12s-1.287 6.05-3.368 8.133M17.304 6.697A7.484 7.484 0 0 1 19.5 12c0 2.07-.84 3.945-2.196 5.304m-2.83-7.78c.634.634 1.026 1.51 1.026 2.476s-.392 1.842-1.025 2.475"/><circle cx="12" cy="12" r=".5"/></g><path fill="none" d="M0 0h24v24H0z"/></symbol><symbol viewBox="0 0 24 24" id="icon_line-map"><g fill="none" stroke="#000" stroke-linecap="round" stroke-linejoin="round" stroke-miterlimit="10"><path d="M7.5 5.5v16m7-11V.5m-1 16.714l-6 4.286-7-5V.5l7 5 7-5 7 5v5"/><path d="M23.5 16.5c0 2.21-4 7-4 7s-4-4.79-4-7a4 4 0 1 1 8 0z"/><circle cx="19.5" cy="16.5" r="1.5"/></g><path fill="none" d="M0 0h24v24H0z"/></symbol><symbol viewBox="0 0 24 24" id="icon_line-microphone"><g fill="none" stroke="#000" stroke-linejoin="round" stroke-miterlimit="10"><path d="M18.5 12.5a6 6 0 0 1-12 0v-6a6 6 0 0 1 12 0v6z"/><path stroke-linecap="round" d="M4.5 10.5v2c0 4.474 3.525 8 8 8 4.473 0 8-3.526 8-8v-2m-8 10v3m0-23v3m2-2.658V3.5m-4-2.658V3.5"/><path d="M4.5 12.5h16"/><path stroke-linecap="round" d="M6.5 6.5h4m-4 2h4m8-2h-4m4 2h-4m-8 2h4m8 0h-4"/></g><path fill="none" d="M0 0h24v24H0z"/></symbol><symbol viewBox="0 0 24 24" id="icon_line-outbound-link"><g fill="none" stroke="#000" stroke-linecap="round" stroke-linejoin="round" stroke-miterlimit="10"><path d="M23.113 9.5H12.5a4 4 0 0 0-4 4v2"/><path d="M19.113 13.5l4-4-4-4M14.5 13v6.5H.5v-14h14V7"/></g></symbol><symbol viewBox="0 0 24 24" id="icon_line-poll"><path d="M.5 23.5h23m-19 0v-5h-3v5m9 0v-10h-3v10m9 0v-8h-3v8m9 0v-15h-3v15" fill="none" stroke="#000" stroke-linecap="round" stroke-linejoin="round" stroke-miterlimit="10"/><path fill="none" d="M0 0h24v24H0z"/></symbol><symbol viewBox="0 0 24 24" id="icon_line-slideshow"><g fill="none" stroke="#000" stroke-linejoin="round" stroke-miterlimit="10"><path d="M15.5 15.5l-3-7.5-2.5 5.5-2.5-3-3 5"/><path d="M1.5 1.5h17v17h-17z"/><path stroke-linecap="round" d="M20.508 7.38l1.992.182L21.137 22.5 6.2 21.137"/><path d="M1.5 15.5h17"/><circle cx="6" cy="6" r="1.5"/></g><path fill="none" d="M0 0h24v24H0z"/></symbol><symbol viewBox="0 0 24 24" id="icon_line-video"><path d="M15.5 17.5c0 .55-.45 1-1 1h-13c-.55 0-1-.45-1-1v-11c0-.55.45-1 1-1h13c.55 0 1 .45 1 1v11zm8 0l-6-3v-5l6-3z" fill="none" stroke="#000" stroke-linejoin="round" stroke-miterlimit="10"/><path fill="none" d="M0 0h24v24H0z"/></symbol><symbol viewBox="0 0 139 20" id="logo_kpcc-black"><title>Donut + KPCC + 89.3</title><g fill="none" fill-rule="evenodd"><path d="M0 10C0 4.484 4.49 0 10.007 0c5.52 0 10.007 4.485 10.007 10s-4.488 10-10.007 10C4.49 20 0 15.515 0 10zm10.143-4.66a4.803 4.803 0 0 0-4.797 4.794 4.802 4.802 0 0 0 4.797 4.796c2.648 0 4.8-2.15 4.8-4.796a4.803 4.803 0 0 0-4.8-4.794z" fill="#F87E21"/><path d="M65.442 19.59h5.32v-4.96l1.946-2.164 4.825 7.123h6.388L76.41 8.656 83.673.41h-6.306L70.76 8.193V.413h-5.318v19.176zm19.466 0h5.32v-5.48h2.63c4.77 0 8.253-2.384 8.253-6.905 0-4.3-3.124-6.794-7.976-6.794H84.91v19.18zm5.346-9.645V4.877h2.606c2.004 0 3.206.876 3.206 2.52v.055c0 1.507-1.202 2.493-3.178 2.493h-2.634zm21.796 10.028c4.25 0 6.69-1.836 8.5-4.33l-4.004-2.848c-1.15 1.397-2.33 2.328-4.332 2.328-2.686 0-4.578-2.246-4.578-5.123v-.055c0-2.794 1.892-5.068 4.578-5.068 1.837 0 3.098.876 4.195 2.246l4-3.096c-1.7-2.356-4.22-4-8.142-4-5.813 0-10.117 4.384-10.117 9.973v.055c0 5.726 4.415 9.918 9.898 9.918zm18.37 0c4.248 0 6.688-1.836 8.498-4.33l-4.003-2.848c-1.15 1.397-2.33 2.328-4.332 2.328-2.687 0-4.578-2.246-4.578-5.123v-.055c0-2.794 1.89-5.068 4.578-5.068 1.837 0 3.098.876 4.195 2.246l4.003-3.096c-1.7-2.356-4.22-4-8.14-4-5.813 0-10.118 4.384-10.118 9.973v.055c0 5.726 4.416 9.918 9.9 9.918z" fill="#000"/><path d="M35.043 14.128c0-1.962-.89-3.767-3.456-4.605 2.2-.81 2.906-2.59 2.906-4.08 0-2.853-2.33-4.71-5.158-4.71-2.854 0-5.158 1.857-5.158 4.71 0 1.516.785 3.348 2.854 4.08-2.512.838-3.402 2.67-3.402 4.605 0 3.22 2.46 5.233 5.708 5.233 3.194 0 5.708-2.012 5.708-5.23zm-1.702-8.66c0 2.38-1.78 3.637-4.004 3.637-2.226 0-4.032-1.256-4.032-3.637 0-2.224 1.937-3.69 4.032-3.69 2.094 0 4.006 1.466 4.006 3.69zm.525 8.66c0 2.512-2.12 4.134-4.53 4.134-2.434 0-4.53-1.622-4.53-4.134 0-2.695 1.99-4.08 4.53-4.08 2.514 0 4.53 1.412 4.53 4.08zm13.624-7.09c0-3.428-2.043-6.306-5.683-6.306-3.168 0-5.577 2.512-5.577 5.6 0 3.113 2.33 5.52 5.524 5.52 1.414 0 3.194-.42 4.45-2.643-.863 4.76-3.665 7.743-6.57 9.967H41.1c4.11-2.956 6.387-7.718 6.387-12.14zm-1.23-.76c0 2.487-1.86 4.5-4.48 4.5-2.512 0-4.45-2.092-4.45-4.473 0-2.38 1.91-4.5 4.45-4.5 2.488 0 4.478 2.067 4.478 4.474zm.835 10.912c-.576 0-1.073.47-1.073 1.072 0 .602.498 1.073 1.074 1.073.63 0 1.1-.47 1.1-1.073 0-.6-.47-1.072-1.1-1.072zm14-3.035c0-2.277-1.282-3.847-3.403-4.527 1.887-.654 2.934-2.093 2.934-4.134 0-2.904-2.383-4.788-5.21-4.788-2.174 0-4.06 1.073-4.975 3.06l1.02.42c.68-1.518 2.226-2.433 3.9-2.433 2.097 0 4.14 1.57 4.14 3.74 0 2.565-1.834 3.638-4.164 3.716v.862c2.566.078 4.608 1.282 4.608 4.082 0 2.51-2.016 4.107-4.425 4.107-1.834 0-3.483-.862-4.19-2.59l-1.047.394c.89 2.302 2.854 3.296 5.236 3.296 3.115 0 5.576-1.96 5.576-5.205z" stroke="#000" stroke-width=".548" fill="#000"/></g></symbol></svg>