<?xml version="1.0" encoding="utf-8"?><svg xmlns="http://www.w3.org/2000/svg" xmlns:xlink="http://www.w3.org/1999/xlink"><symbol viewBox="0 0 24 24" id="icon_filled-checkmark"><path d="M23.576.183a1 1 0 0 0-1.393.242L7.367 21.452l-5.66-5.66a1 1 0 1 0-1.414 1.414l6.5 6.5a1 1 0 0 0 1.524-.13l15.5-22a1 1 0 0 0-.24-1.393z"/></symbol><symbol viewBox="0 0 24 24" id="icon_line-article"><g fill="none" stroke="#000" stroke-linecap="round" stroke-linejoin="round" stroke-miterlimit="10"><path d="M.5 2.5h23v18H.5z"/><path d="M2.5 5.5h19v3h-19zm2 6h6m-7 2h7m-7 2h7m-7 2h7m3-6h7m-7 2h7m-7 2h7m-7 2h6"/></g></symbol><symbol viewBox="0 0 24 24" id="icon_line-audio"><g stroke="#000" stroke-linecap="round" stroke-linejoin="round" stroke-miterlimit="10" fill="none"><path class="cpath" d="M4.5 11A7.5 7.5 0 0 1 12 3.5a7.5 7.5 0 0 1 7.5 7.5M4.5 11a4 4 0 0 0 0 8v-8zm15 0a4 4 0 0 1 0 8v-8zm-2 4.5H16l-1.5 3-1.5-7-2 5-1.5-3-1.5 2H6.5"/></g></symbol><symbol viewBox="0 0 24 24" id="icon_line-close"><g fill="none" stroke="#000" stroke-linecap="round" stroke-linejoin="round" stroke-miterlimit="10"><circle cx="11.5" cy="11.5" r="11"/><path d="M15.742 7.258l-8.485 8.485m8.485 0L7.257 7.258"/></g></symbol><symbol viewBox="0 0 24 24" id="icon_line-comment"><path fill="none" stroke="#000" stroke-linejoin="round" stroke-miterlimit="10" d="M23.5 10.883c0 5.18-5.148 9.383-11.5 9.383-1.418 0-2.775-.21-4.03-.593L1.364 22.75l2.588-5.167C1.823 15.88.5 13.507.5 10.883.5 5.7 5.65 1.5 12 1.5s11.5 4.2 11.5 9.383z"/><path fill="none" d="M0 0h24v24H0z"/></symbol><symbol viewBox="0 0 24 24" id="icon_line-document"><g fill="none" stroke="#000" stroke-linecap="round" stroke-linejoin="round" stroke-miterlimit="10"><path d="M20.5 23.5h-17V.5h11l6 6z"/><path d="M14.5.5v6h6m-13 1H12m-4.5 3h9m-9 3h9m-9 3h9m-9 3h9"/></g><path fill="none" d="M0 0h24v24H0z"/></symbol><symbol viewBox="0 0 24 24" id="icon_line-donate"><g fill="none" stroke="#000" stroke-linejoin="round" stroke-miterlimit="10"><circle cx="17.5" cy="17.5" r="6"/><path stroke-linecap="round" d="M15 17.5h5M17.5 20v-5"/></g><path fill="none" stroke="#000" stroke-linecap="round" stroke-linejoin="round" stroke-miterlimit="10" d="M20.99 9.437c.312-.917.49-1.84.49-2.756 0-7.016-9.41-8.385-10.49-1.368C9.91-1.705.5-.876.5 6.682c0 6.095 6.825 11.853 9.465 13.852"/></symbol><symbol viewBox="0 0 24 24" id="icon_line-infographic"><g fill="none" stroke="#000" stroke-linecap="round" stroke-linejoin="round" stroke-miterlimit="10"><path d="M23.5 23.5H.5V.5"/><circle cx="7.5" cy="16.5" r="1.5"/><path d="M16.916 8.314l4.076-5.206M9.932 7.462l4.62 1.648M.5 11.78l6.72-4.004m9.08 7.976l4.404-2.496M9 16.5h4.5M.5 21l5.712-3.734"/><circle cx="8.5" cy="7" r="1.5"/><circle cx="16" cy="9.5" r="1.5"/><circle cx="22" cy="2" r="1.5"/><circle cx="22" cy="12.5" r="1.5"/><circle cx="15" cy="16.5" r="1.5"/></g><path fill="none" d="M0 0h24v24H0z"/></symbol><symbol viewBox="0 0 24 24" id="icon_line-listen-live"><g fill="none" stroke="#000" stroke-linejoin="round" stroke-miterlimit="10"><path stroke-linecap="round" d="M3.868 3.868C1.788 5.948.5 8.824.5 12s1.287 6.05 3.368 8.133M6.696 6.697A7.484 7.484 0 0 0 4.5 12c0 2.07.84 3.945 2.196 5.304m2.83-7.78C8.89 10.16 8.5 11.035 8.5 12s.392 1.842 1.025 2.475M20.132 3.868C22.212 5.948 23.5 8.824 23.5 12s-1.287 6.05-3.368 8.133M17.304 6.697A7.484 7.484 0 0 1 19.5 12c0 2.07-.84 3.945-2.196 5.304m-2.83-7.78c.634.634 1.026 1.51 1.026 2.476s-.392 1.842-1.025 2.475"/><circle cx="12" cy="12" r=".5"/></g></symbol><symbol viewBox="0 0 24 24" id="icon_line-map"><g fill="none" stroke="#000" stroke-linecap="round" stroke-linejoin="round" stroke-miterlimit="10"><path d="M7.5 5.5v16m7-11V.5m-1 16.714l-6 4.286-7-5V.5l7 5 7-5 7 5v5"/><path d="M23.5 16.5c0 2.21-4 7-4 7s-4-4.79-4-7a4 4 0 1 1 8 0z"/><circle cx="19.5" cy="16.5" r="1.5"/></g><path fill="none" d="M0 0h24v24H0z"/></symbol><symbol viewBox="0 0 24 24" id="icon_line-menu"><path fill="none" stroke="#000" stroke-linecap="round" stroke-linejoin="round" stroke-miterlimit="10" d="M19 5.5H4.043M19 9.5H4.043M19 13.5H4.043M19 17.5H4.043"/></symbol><symbol viewBox="0 0 24 24" id="icon_line-microphone"><g fill="none" stroke="#000" stroke-linejoin="round" stroke-miterlimit="10"><path d="M18.5 12.5a6 6 0 0 1-12 0v-6a6 6 0 0 1 12 0v6z"/><path stroke-linecap="round" d="M4.5 10.5v2c0 4.474 3.525 8 8 8 4.473 0 8-3.526 8-8v-2m-8 10v3m0-23v3m2-2.658V3.5m-4-2.658V3.5"/><path d="M4.5 12.5h16"/><path stroke-linecap="round" d="M6.5 6.5h4m-4 2h4m8-2h-4m4 2h-4m-8 2h4m8 0h-4"/></g><path fill="none" d="M0 0h24v24H0z"/></symbol><symbol viewBox="0 0 24 24" id="icon_line-outbound-link"><g fill="none" stroke="#000" stroke-linecap="round" stroke-linejoin="round" stroke-miterlimit="10"><path d="M23.113 9.5H12.5a4 4 0 0 0-4 4v2"/><path d="M19.113 13.5l4-4-4-4M14.5 13v6.5H.5v-14h14V7"/></g></symbol><symbol viewBox="0 0 24 24" id="icon_line-poll"><path d="M.5 23.5h23m-19 0v-5h-3v5m9 0v-10h-3v10m9 0v-8h-3v8m9 0v-15h-3v15" fill="none" stroke="#000" stroke-linecap="round" stroke-linejoin="round" stroke-miterlimit="10"/><path fill="none" d="M0 0h24v24H0z"/></symbol><symbol viewBox="0 0 24 24" id="icon_line-search"><g fill="none" stroke="#000" stroke-linejoin="round" stroke-miterlimit="10"><circle cx="8.5" cy="8.5" r="8"/><path stroke-linecap="round" d="M14.156 14.156L23.5 23.5"/></g></symbol><symbol viewBox="0 0 24 24" id="icon_line-slideshow"><g fill="none" stroke="#000" stroke-linejoin="round" stroke-miterlimit="10"><path d="M15.5 15.5l-3-7.5-2.5 5.5-2.5-3-3 5"/><path d="M1.5 1.5h17v17h-17z"/><path stroke-linecap="round" d="M20.508 7.38l1.992.182L21.137 22.5 6.2 21.137"/><path d="M1.5 15.5h17"/><circle cx="6" cy="6" r="1.5"/></g><path fill="none" d="M0 0h24v24H0z"/></symbol><symbol viewBox="0 0 24 24" id="icon_line-video"><path d="M15.5 17.5c0 .55-.45 1-1 1h-13c-.55 0-1-.45-1-1v-11c0-.55.45-1 1-1h13c.55 0 1 .45 1 1v11zm8 0l-6-3v-5l6-3z" fill="none" stroke="#000" stroke-linejoin="round" stroke-miterlimit="10"/><path fill="none" d="M0 0h24v24H0z"/></symbol><symbol viewBox="0 0 139 20" id="logo_kpcc-black"><path d="M0 10C0 4.484 4.49 0 10.007 0c5.52 0 10.007 4.485 10.007 10s-4.488 10-10.007 10C4.49 20 0 15.515 0 10zm10.143-4.66a4.803 4.803 0 0 0-4.797 4.794 4.802 4.802 0 0 0 4.797 4.796c2.648 0 4.8-2.15 4.8-4.796a4.803 4.803 0 0 0-4.8-4.794z" fill="#F87E21"/><path d="M65.442 19.59h5.32v-4.96l1.946-2.164 4.825 7.123h6.388L76.41 8.656 83.673.41h-6.306L70.76 8.193V.413h-5.318v19.176zm19.466 0h5.32v-5.48h2.63c4.77 0 8.253-2.384 8.253-6.905 0-4.3-3.124-6.794-7.976-6.794H84.91v19.18zm5.346-9.645V4.877h2.606c2.004 0 3.206.876 3.206 2.52v.055c0 1.507-1.202 2.493-3.178 2.493h-2.634zm21.796 10.028c4.25 0 6.69-1.836 8.5-4.33l-4.004-2.848c-1.15 1.397-2.33 2.328-4.332 2.328-2.686 0-4.578-2.246-4.578-5.123v-.055c0-2.794 1.892-5.068 4.578-5.068 1.837 0 3.098.876 4.195 2.246l4-3.096c-1.7-2.356-4.22-4-8.142-4-5.813 0-10.117 4.384-10.117 9.973v.055c0 5.726 4.415 9.918 9.898 9.918zm18.37 0c4.248 0 6.688-1.836 8.498-4.33l-4.003-2.848c-1.15 1.397-2.33 2.328-4.332 2.328-2.687 0-4.578-2.246-4.578-5.123v-.055c0-2.794 1.89-5.068 4.578-5.068 1.837 0 3.098.876 4.195 2.246l4.003-3.096c-1.7-2.356-4.22-4-8.14-4-5.813 0-10.118 4.384-10.118 9.973v.055c0 5.726 4.416 9.918 9.9 9.918z"/><path d="M35.043 14.128c0-1.962-.89-3.767-3.456-4.605 2.2-.81 2.906-2.59 2.906-4.08 0-2.853-2.33-4.71-5.158-4.71-2.854 0-5.158 1.857-5.158 4.71 0 1.516.785 3.348 2.854 4.08-2.512.838-3.402 2.67-3.402 4.605 0 3.22 2.46 5.233 5.708 5.233 3.194 0 5.708-2.012 5.708-5.23zm-1.702-8.66c0 2.38-1.78 3.637-4.004 3.637-2.226 0-4.032-1.256-4.032-3.637 0-2.224 1.937-3.69 4.032-3.69 2.094 0 4.006 1.466 4.006 3.69zm.525 8.66c0 2.512-2.12 4.134-4.53 4.134-2.434 0-4.53-1.622-4.53-4.134 0-2.695 1.99-4.08 4.53-4.08 2.514 0 4.53 1.412 4.53 4.08zm13.624-7.09c0-3.428-2.043-6.306-5.683-6.306-3.168 0-5.577 2.512-5.577 5.6 0 3.113 2.33 5.52 5.524 5.52 1.414 0 3.194-.42 4.45-2.643-.863 4.76-3.665 7.743-6.57 9.967H41.1c4.11-2.956 6.387-7.718 6.387-12.14zm-1.23-.76c0 2.487-1.86 4.5-4.48 4.5-2.512 0-4.45-2.092-4.45-4.473 0-2.38 1.91-4.5 4.45-4.5 2.488 0 4.478 2.067 4.478 4.474zm.835 10.912c-.576 0-1.073.47-1.073 1.072 0 .602.498 1.073 1.074 1.073.63 0 1.1-.47 1.1-1.073 0-.6-.47-1.072-1.1-1.072zm14-3.035c0-2.277-1.282-3.847-3.403-4.527 1.887-.654 2.934-2.093 2.934-4.134 0-2.904-2.383-4.788-5.21-4.788-2.174 0-4.06 1.073-4.975 3.06l1.02.42c.68-1.518 2.226-2.433 3.9-2.433 2.097 0 4.14 1.57 4.14 3.74 0 2.565-1.834 3.638-4.164 3.716v.862c2.566.078 4.608 1.282 4.608 4.082 0 2.51-2.016 4.107-4.425 4.107-1.834 0-3.483-.862-4.19-2.59l-1.047.394c.89 2.302 2.854 3.296 5.236 3.296 3.115 0 5.576-1.96 5.576-5.205z" stroke="#000" stroke-width=".548"/></symbol><symbol viewBox="0 0 139 20" id="logo_kpcc-white"><path d="M0 10C0 4.484 4.49 0 10.007 0c5.52 0 10.007 4.485 10.007 10s-4.488 10-10.007 10C4.49 20 0 15.515 0 10zm10.143-4.66a4.803 4.803 0 0 0-4.797 4.794 4.802 4.802 0 0 0 4.797 4.796c2.648 0 4.8-2.15 4.8-4.796a4.803 4.803 0 0 0-4.8-4.794z" fill="#F87E21"/><g fill="#FFF"><path d="M65.442 19.59h5.32v-4.96l1.946-2.164 4.825 7.123h6.388L76.41 8.656 83.673.41h-6.306L70.76 8.193V.413h-5.318v19.176zm19.466 0h5.32v-5.48h2.63c4.77 0 8.253-2.384 8.253-6.905 0-4.3-3.124-6.794-7.976-6.794H84.91v19.18zm5.346-9.645V4.877h2.606c2.004 0 3.206.876 3.206 2.52v.055c0 1.507-1.202 2.493-3.178 2.493h-2.634zm21.796 10.028c4.25 0 6.69-1.836 8.5-4.33l-4.004-2.848c-1.15 1.397-2.33 2.328-4.332 2.328-2.686 0-4.578-2.246-4.578-5.123v-.055c0-2.794 1.892-5.068 4.578-5.068 1.837 0 3.098.876 4.195 2.246l4-3.096c-1.7-2.356-4.22-4-8.142-4-5.813 0-10.117 4.384-10.117 9.973v.055c0 5.726 4.415 9.918 9.898 9.918zm18.37 0c4.248 0 6.688-1.836 8.498-4.33l-4.003-2.848c-1.15 1.397-2.33 2.328-4.332 2.328-2.687 0-4.578-2.246-4.578-5.123v-.055c0-2.794 1.89-5.068 4.578-5.068 1.837 0 3.098.876 4.195 2.246l4.003-3.096c-1.7-2.356-4.22-4-8.14-4-5.813 0-10.118 4.384-10.118 9.973v.055c0 5.726 4.416 9.918 9.9 9.918z"/><path d="M35.043 14.128c0-1.962-.89-3.767-3.456-4.605 2.2-.81 2.906-2.59 2.906-4.08 0-2.853-2.33-4.71-5.158-4.71-2.854 0-5.158 1.857-5.158 4.71 0 1.516.785 3.348 2.854 4.08-2.512.838-3.402 2.67-3.402 4.605 0 3.22 2.46 5.233 5.708 5.233 3.194 0 5.708-2.012 5.708-5.23zm-1.702-8.66c0 2.38-1.78 3.637-4.004 3.637-2.226 0-4.032-1.256-4.032-3.637 0-2.224 1.937-3.69 4.032-3.69 2.094 0 4.006 1.466 4.006 3.69zm.525 8.66c0 2.512-2.12 4.134-4.53 4.134-2.434 0-4.53-1.622-4.53-4.134 0-2.695 1.99-4.08 4.53-4.08 2.514 0 4.53 1.412 4.53 4.08zm13.624-7.09c0-3.428-2.043-6.306-5.683-6.306-3.168 0-5.577 2.512-5.577 5.6 0 3.113 2.33 5.52 5.524 5.52 1.414 0 3.194-.42 4.45-2.643-.863 4.76-3.665 7.743-6.57 9.967H41.1c4.11-2.956 6.387-7.718 6.387-12.14zm-1.23-.76c0 2.487-1.86 4.5-4.48 4.5-2.512 0-4.45-2.092-4.45-4.473 0-2.38 1.91-4.5 4.45-4.5 2.488 0 4.478 2.067 4.478 4.474zm.835 10.912c-.576 0-1.073.47-1.073 1.072 0 .602.498 1.073 1.074 1.073.63 0 1.1-.47 1.1-1.073 0-.6-.47-1.072-1.1-1.072zm14-3.035c0-2.277-1.282-3.847-3.403-4.527 1.887-.654 2.934-2.093 2.934-4.134 0-2.904-2.383-4.788-5.21-4.788-2.174 0-4.06 1.073-4.975 3.06l1.02.42c.68-1.518 2.226-2.433 3.9-2.433 2.097 0 4.14 1.57 4.14 3.74 0 2.565-1.834 3.638-4.164 3.716v.862c2.566.078 4.608 1.282 4.608 4.082 0 2.51-2.016 4.107-4.425 4.107-1.834 0-3.483-.862-4.19-2.59l-1.047.394c.89 2.302 2.854 3.296 5.236 3.296 3.115 0 5.576-1.96 5.576-5.205z" stroke="#FFF" stroke-width=".5"/></g></symbol><symbol viewBox="0 0 106 20" id="logo_partner-apm"><path d="M5.215 9.995c0-2.655 2.168-4.817 4.823-4.817a4.82 4.82 0 0 1 4.814 4.817c0 2.663-2.158 4.828-4.814 4.828a4.833 4.833 0 0 1-4.823-4.828zm-4.997 0c0 5.416 4.406 9.82 9.82 9.82 5.408 0 9.812-4.404 9.812-9.82 0-5.414-4.404-9.817-9.812-9.817C4.624.178.218 4.58.218 9.995zm29.14-4.68l-.65-2.232h-.02l-.703 2.233h1.372zM27.6.66h2.183l2.64 7.243h-2.315l-.305-1.035H27.5l-.326 1.035H24.93L27.6.66zm5.256 0h3.177l1.036 4.26h.02L38.12.66h3.176v7.242H39.19V3.256h-.023L37.91 7.902h-1.663l-1.26-4.646h-.02v4.646h-2.11V.66m9.538 0h5.998v1.855H44.63v.906h3.418v1.72H44.63v.907h3.875v1.855h-6.11V.66m9.327 3.165h1.166c.416 0 .986-.072.986-.722 0-.457-.255-.718-1.108-.718h-1.044v1.44zM49.488.66h4.254c1.266 0 2.363.7 2.363 2.07 0 .75-.345 1.542-1.086 1.816.61.233.984.902 1.065 1.804.03.356.042 1.22.243 1.553h-2.232c-.11-.364-.15-.74-.182-1.116-.06-.69-.123-1.41-1.004-1.41h-1.188v2.526h-2.234V.66zm7.47 7.243h2.233V.66h-2.233zm7.895-4.546c-.04-.265-.243-1.065-1.167-1.065-1.046 0-1.38 1.014-1.38 1.988 0 .977.334 1.99 1.38 1.99.75 0 1.045-.528 1.177-1.207h2.192c0 1.46-1.188 3.014-3.31 3.014-2.342 0-3.672-1.657-3.672-3.797 0-2.282 1.44-3.795 3.673-3.795 1.99.01 3.086 1.055 3.278 2.872h-2.17m6.85 1.96l-.65-2.234h-.02l-.7 2.233h1.37zM69.946.66h2.18l2.64 7.243h-2.313l-.306-1.035h-2.302l-.325 1.035H67.28L69.948.66zm5.278 0h2.282l2.11 3.875h.02V.66h2.11V7.9h-2.17l-2.224-3.957h-.018v3.957h-2.11V.66M27.31 15.42h.862c.58 0 1.19-.04 1.19-.768 0-.662-.508-.7-1.058-.7h-.994v1.468zm-2.233-3.328h3.734c1.97 0 2.66 1.44 2.66 2.475 0 1.755-1.175 2.58-2.842 2.58H27.31v2.188h-2.233v-7.243zm13.668 4.443c0 2.01-1.086 2.973-3.295 2.973-2.215 0-3.31-.963-3.31-2.973v-4.443h2.233v3.948c0 .74 0 1.666 1.085 1.666 1.056 0 1.056-.927 1.056-1.666v-3.948h2.23v4.443m3.31 1.075h1.31c.467 0 .872-.133.872-.685 0-.428-.254-.664-.78-.664h-1.4v1.35zm0-2.698h1.178c.466 0 .76-.132.76-.6 0-.36-.304-.494-.76-.494h-1.177v1.094zm-2.23-2.82h3.966c1.906 0 2.312 1.075 2.312 1.817 0 .73-.353 1.123-.893 1.417.65.226 1.26.744 1.26 1.808 0 1.454-1.26 2.2-2.538 2.2h-4.11v-7.243zm7.466 0h2.234v5.385h3.206v1.858h-5.44v-7.243m6.344 7.244h2.23v-7.244h-2.23zm7.894-4.55c-.042-.26-.243-1.06-1.168-1.06-1.045 0-1.38 1.015-1.38 1.988 0 .977.335 1.992 1.38 1.992.752 0 1.046-.53 1.177-1.21h2.193c0 1.463-1.186 3.012-3.31 3.012-2.343 0-3.673-1.65-3.673-3.794 0-2.28 1.442-3.795 3.673-3.795 1.99.01 3.087 1.054 3.28 2.867h-2.172m6.412-2.695h3.177l1.036 4.26h.02l1.034-4.26h3.177v7.243h-2.11V14.69h-.02l-1.26 4.645H71.33l-1.26-4.644h-.018v4.645H67.94v-7.243m9.538 0h6v1.86h-3.766v.9h3.42v1.72h-3.42v.905h3.876v1.858h-6.11v-7.243m9.327 5.385h.874c1.39 0 1.592-1.124 1.592-1.804 0-.456-.142-1.722-1.757-1.722h-.71v3.527zm-2.232-5.385h3.663c2.415 0 3.268 1.786 3.268 3.612 0 2.224-1.176 3.63-3.705 3.63h-3.227v-7.242zm7.844 7.244h2.23v-7.244h-2.23zm7.093-2.586l-.65-2.233h-.02l-.7 2.234h1.37zm-1.755-4.658h2.183l2.637 7.243h-2.312l-.306-1.03h-2.303l-.325 1.03h-2.245l2.67-7.243zm6.64 1.113l.416-1.086h.428v1.53h-.277v-1.197h-.006l-.46 1.197h-.208l-.457-1.197h-.007v1.197h-.28v-1.53h.432l.42 1.085zm-1.164-.844h-.47v1.29h-.295v-1.29h-.468v-.24h1.234v.24z" fill="#B9B9B9" fill-rule="evenodd"/></symbol><symbol viewBox="0 0 71 20" id="logo_partner-bbc"><path d="M12.258 6.76s.08-1.593-2.06-1.707H8.14V8.77h1.754s2.366-.03 2.366-2.01zm-1.416 4.28H8.138v3.93h2.704s2.704.128 2.704-2.046c0 0 .082-1.898-2.704-1.883zm5.345 2.095c0 4.04-4.756 4.056-4.83 4.056H5.58V2.817h5.04c4.544.42 4.264 3.848 4.264 3.848.016 2.092-1.835 2.88-1.835 2.88 3.25.82 3.138 3.59 3.138 3.59zM0 20h21.225V0H0v20zM36.726 6.76s.08-1.593-2.06-1.707h-2.06V8.77h1.754s2.366-.03 2.366-2.01zm-1.416 4.28h-2.704v3.93h2.704s2.704.128 2.704-2.046c0 0 .08-1.898-2.704-1.883zm5.343 2.095c0 4.04-4.756 4.056-4.83 4.056h-5.777V2.817h5.042c4.543.42 4.26 3.848 4.26 3.848.018 2.092-1.834 2.88-1.834 2.88 3.253.82 3.14 3.59 3.14 3.59zM24.476 20H45.7V0H24.476v20zm12.25-13.24s.08-1.593-2.06-1.707h-2.06V8.77h1.754s2.366-.03 2.366-2.01zm-1.416 4.28h-2.704v3.93h2.704s2.704.128 2.704-2.046c0 0 .08-1.898-2.704-1.883zm0 0h-2.704v3.93h2.704s2.704.128 2.704-2.046c0 0 .08-1.898-2.704-1.883zm-.645-5.987h-2.06V8.77h1.755s2.366-.03 2.366-2.01c0 0 .08-1.593-2.06-1.707zm31.31 10.995s-4.364 2.592-9.417.595c0 0-4.25-1.553-4.412-6.643 0 0-.176-5.237 5.49-6.975 0 0 1.512-.58 4.234-.32 0 0 1.624.16 3.975 1.14v2.657s-2.592-1.594-5.457-1.625c0 0-5.345-.104-5.586 5.123 0 0-.193 4.808 5.523 5.082 0 0 2.397.29 5.65-1.787v2.753zM48.95 20h21.225V0H48.95v20z" fill="#B9B9B9" fill-rule="evenodd"/></symbol><symbol viewBox="0 0 29 20" id="logo_partner-nbc4"><g fill="none" fill-rule="evenodd"><path d="M10.774 0L0 11.368v4.597h11.67v4.01h6.586V15.84h1.43l.598-4.472h-2.328V0h-7.182zm.693 6.737v4.7H7.23l4.236-4.7z" fill="#858585"/><path d="M24.56 12.52c.216.445.09 1.028-.134 1.427l-1.732 4.008-.014.02-.626-4.067c-.05-.39.356-.557.593-.744-.01-.057-.073-.054-.112-.08l-.585-.008-.017-.017c.003-.507.267-.974.714-1.218.467-.28 1.126-.202 1.533.155.163.15.302.326.38.523m-3.188-.14c.14.27.223.575.173.914l-.705 4.655c.002.005-.004.01-.01.014l-.182-.375-1.77-4.066a1.438 1.438 0 0 1 .358-1.446c.373-.39.988-.496 1.477-.285.258.115.505.327.66.588m5.75 1.96c.237.418.185 1.05-.08 1.437-.165.273-.437.41-.665.588l-3.666 2.587h-.01l.043-.123 1.943-4.513c.29-.533.847-.802 1.435-.72.402.076.804.344 1 .743m-8.33-.023l2.023 4.635h-.033l-4.08-2.89a1.406 1.406 0 0 1-.44-1.444 1.43 1.43 0 0 1 .825-.94 1.377 1.377 0 0 1 1.704.64m9.394 3.295c.203.44.123 1.047-.168 1.422-.288.36-.673.556-1.125.544l-4.348.002 3.642-2.607c.356-.236.898-.278 1.285-.088.3.122.582.423.714.726m-12.874 0c-.203.44-.123 1.047.167 1.422.29.36.673.556 1.125.544l4.35.002-3.645-2.607a1.372 1.372 0 0 0-1.284-.088c-.3.122-.582.423-.714.726" fill="#B9B9B9"/></g></symbol><symbol viewBox="0 0 62 20" id="logo_partner-npr"><g fill="#B9B9B9" fill-rule="evenodd"><path d="M59.99 1.576c.183 0 .365-.007.365-.212 0-.17-.143-.21-.29-.21h-.273v.42h.198zm-.198.665h-.148V1.03h.464c.273 0 .396.12.396.336 0 .214-.143.31-.305.338l.36.54h-.175l-.342-.54h-.25v.54zm-.653-.606c0 .503.376.9.884.9.507 0 .884-.397.884-.9 0-.502-.377-.9-.884-.9-.508 0-.885.398-.885.9zm1.932 0c0 .59-.455 1.05-1.048 1.05s-1.05-.46-1.05-1.05c0-.59.457-1.05 1.05-1.05s1.048.46 1.048 1.05zM.3 20H19.75V.25H0V20h.3zm0-.597l.297.298V.55L.3.848h19.153l-.298-.3v19.153l.298-.297H.3zM19.45 20h19.452V.25h-19.75V20h.298zm0-.597l.3.298V.55l-.3.3h19.153l-.3-.3v19.152l.3-.298H19.452zM38.565 20h19.452V.25h-19.75V20h.298zm0-.597l.3.298V.55l-.3.3h19.153l-.298-.3V19.7l.298-.297H38.565z"/><path d="M11.736 15.01V9.36c0-.835-.16-1.443-.482-1.828-.32-.382-.845-.575-1.573-.575-.335 0-.694.095-1.076.284-.382.188-.68.424-.895.703v7.067H5.42V5.193h1.65l.422.915c.623-.72 1.543-1.08 2.758-1.08 1.166 0 2.088.348 2.763 1.048.675.697 1.013 1.673 1.013 2.922v6.012h-2.29m17.11.194c1.498 0 2.68-.434 3.545-1.3.866-.867 1.297-2.106 1.297-3.71 0-3.444-1.563-5.167-4.693-5.167-.838 0-1.544.276-2.118.825v-.66h-2.29v13.652h2.29v-4.072a4.465 4.465 0 0 0 1.97.432zm-.508-8.22c1.053 0 1.81.237 2.266.71.456.472.684 1.286.684 2.445 0 1.083-.23 1.877-.69 2.38-.46.5-1.216.753-2.27.753-.553 0-1.04-.167-1.452-.503V7.624c.426-.424.913-.64 1.462-.64zm22.378.36a2.46 2.46 0 0 0-1.34-.387c-.53 0-1 .24-1.41.722-.41.48-.614 1.067-.614 1.76v5.57h-2.29V5.193h2.29v.938c.638-.737 1.485-1.104 2.544-1.104.776 0 1.372.12 1.786.357l-.966 1.96"/></g></symbol><symbol viewBox="0 0 57 20" id="logo_partner-pcc"><g fill="#B9B9B9" fill-rule="evenodd"><path d="M13.132 12.603v.273l.16 1.998 1.637-1.05.063-1.22h-1.86zm-3.732.02v.253l.287 4.308a13.25 13.25 0 0 0 1.36-.867l.193-2.997v-.717l-1.84.02zm-7.518-8.95l-.042.232.042 5.923 13.09-.02v-.07l-.043-7.135-1.83.142-.02 6.68-1.82-.01-.042-6.51-1.85.152-.02.05.03 6.247-.03.07-1.84-.01-.043-6.195-1.83.14v6.035l-.042.03-1.84-.01-.03-5.893-1.84.15zm-.925 6.57v.362h14.015l-.022-.373-13.993.01zM13.972 0l-.7.13L7.58.95h-.074l-5.646.837-.042.03.02 1.524H2.2l12.73-1.21.043-.072V.09c.01-.08.074 0 .117 0l1.7 1.09.054 13.41-.19.163L8.463 20a36.38 36.38 0 0 1-1.318-.838l.383-6.538-.044-.03H5.668l-.053.05.36 5.772-2.434-1.544.235-4.248-.042-.03h-1.83l-.042.03.214 3.29-.362-.203-1.648-1.05-.022-3.217 14.93-.02.02-.394-14.95-.02L0 2.784.02 0h13.952zm19.63 1.826C36.06-.27 39.936-.424 42.918.666l1.105.546c-.105.528-.333 1.09-.474 1.653-.333-.034-.438-.477-.72-.648C41.27.684 38.656.445 36.64 1.177c-2.263.904-3.473 3.204-3.666 5.436-.14 2.778.403 5.52 2.91 7.09 1.878 1.293 4.895 1.362 6.86.17l.964-.768h.14c0 .528-.263 1.005-.35 1.516-2.754 1.16-6.665 1.21-9.156-.527-2.666-1.687-3.613-4.464-3.35-7.48.21-1.874 1-3.544 2.613-4.787"/><path d="M46.087 1.826C48.542-.27 52.42-.424 55.4.666l1.106.546c-.106.528-.333 1.09-.474 1.653-.333-.034-.438-.477-.72-.648-1.56-1.533-4.173-1.772-6.19-1.04-2.263.904-3.473 3.204-3.666 5.436-.14 2.778.403 5.52 2.91 7.09 1.877 1.293 4.895 1.362 6.86.17l.964-.768h.14c0 .528-.263 1.005-.35 1.516-2.754 1.16-6.666 1.21-9.156-.527-2.667-1.687-3.614-4.464-3.35-7.48.21-1.874 1-3.544 2.613-4.787M22.97 3.036l-.034 4.6.088.067c2.05.103 4.19-.153 5.12-2.06.474-.99.51-2.455-.157-3.375-1.14-1.5-3.174-1.125-4.93-1.142l-.086 1.91zM25.217.34c1.77-.05 3.77.103 4.753 1.773.544 1.04.614 2.572.07 3.612-1.298 2.606-4.297 2.743-7.015 2.64l-.053 3.988.158 2.914H21.2l.123-3.99-.087-8.552c-.088-.784-.088-1.602-.124-2.386h4.105z"/></g></symbol><symbol viewBox="0 0 87 20" id="logo_partner-pri"><defs><path id="ya" d="M33.587 18.796V.374H0v18.422h33.587z"/></defs><g fill="none" fill-rule="evenodd"><g transform="translate(0 1.053)"><mask id="yb" fill="#fff"><use xlink:href="#ya"/></mask><path d="M9.01 4.937c.49.802 1.13 1.59 1.9 2.33 1.473 1.42 3.38 2.655 5.535 3.558 3.31 1.387 6.755 1.807 9.453 1.195l1.294-.294-1.222-.512L9.546 4.326l-1.223-.513.686 1.124zm.736-.44l-.536.612 16.423 6.887.072-.806c-2.51.57-5.772.173-8.924-1.15-2.056-.86-3.874-2.037-5.27-3.383a11 11 0 0 1-1.764-2.16zM22.07 3.5c-.568.137-1.454.012-2.343-.36-1.344-.565-2.177-1.49-1.996-1.913a.32.32 0 0 1 .064-.088l-.312-.295-.237.355 4.69 3.068.135-.768zm.204.826l.956-.23-.82-.538L17.72.49l-.3-.196-.25.258c-.096.1-.172.21-.228.337-.438 1.02.72 2.306 2.45 3.034 1.047.438 2.114.588 2.882.402zm.258-1.21a.306.306 0 0 1-.024.114c-.05.114-.19.21-.436.27l.1.413.305.3.79-.783-.305-.3-.43-.015zm.86.027l.036-1.078-.77.764-.79.783-1.072 1.062 1.476-.348c.49-.116.86-.372 1.028-.763.057-.134.087-.274.092-.42zm-3.485.687c.153 4.39-1.668 9.64-5.946 14.298l.718.448 6.057-14.6-.828-.146zm.86-.03l-.07-1.976-.76 1.83-6.055 14.6-.93 2.24L14.6 18.7c4.433-4.827 6.33-10.294 6.168-14.9zm-2.214-.928c-3.463 3.088-6.126 8.234-6.56 14.734l-.16 2.415.984-2.215 6.418-14.447.806-1.814-1.487 1.328zm.576.63l-.683-.486-6.418 14.447.823.2c.418-6.274 2.975-11.216 6.276-14.16zm2.654.613c1.082 2.056 1.42 5.65.6 7.663l-.017.05a3.98 3.98 0 0 1-.104.31 8.38 8.38 0 0 1-.385.874c-.462.912-1.1 1.825-1.94 2.678-1.075 1.09-2.405 2-4.02 2.672l.567.552 6.08-14.835-.78.035zm.764-.392l-.43-.818-.35.854-6.08 14.835-.39.95.956-.4c1.722-.716 3.146-1.692 4.3-2.862a11.588 11.588 0 0 0 2.094-2.89c.303-.597.477-1.067.552-1.347l-.017.05c.918-2.256.557-6.108-.635-8.373zM17.352 1.56c-2.473.73-5.513 3.145-6.514 5.356l.025-.047a4.88 4.88 0 0 0-.206.386 9.394 9.394 0 0 0-.43 1.047c-.85 2.468-.92 5.345.292 8.44l.373.956.42-.94L17.87 2.14l.38-.845-.897.266zm.247.813l-.518-.58-6.555 14.624.795.02c-1.133-2.896-1.068-5.57-.28-7.86.125-.362.258-.68.39-.952a4.14 4.14 0 0 1 .167-.315l.024-.047c.893-1.972 3.73-4.225 5.975-4.89zM7.472 8.916c1.308 2.447 3.93 4.67 7.198 6.04 3.256 1.365 6.68 1.687 9.37.928l1.167-.33-1.117-.47L8.022 8.326l-1.115-.47.566 1.06zm.76-.397l-.548.59 16.067 6.756.05-.8c-2.488.703-5.713.4-8.795-.894-3.093-1.297-5.562-3.39-6.773-5.653zm4.487-6.732c.74 1.99 2.793 3.886 5.458 5 2.663 1.12 5.47 1.26 7.432.405l.91-.397-.916-.383-12.31-5.163-.916-.384.342.922zm.808-.293l-.572.538 12.312 5.163-.006-.78c-1.726.752-4.29.622-6.748-.41-2.46-1.03-4.336-2.762-4.986-4.51zm-.37 16.977c4.843 2.03 10.43-.2 12.487-4.984 2.053-4.783-.205-10.305-5.044-12.34-4.84-2.027-10.43.205-12.485 4.986-2.054 4.785.203 10.31 5.044 12.338zm.337-.783C9.092 15.842 7.04 10.82 8.907 6.465c1.87-4.35 6.954-6.38 11.357-4.534 4.402 1.85 6.456 6.873 4.59 11.223-1.872 4.35-6.955 6.38-11.36 4.534zM33.86 3.906V.824h-3.12v3.083h2.22c0 1.208-.993 2.19-2.22 2.19v.892c1.724 0 3.12-1.383 3.12-3.083m-3.992 0V.824h-3.12v3.083h2.217c0 1.208-.993 2.19-2.217 2.19v.892c1.722 0 3.12-1.383 3.12-3.083M-.097 3.455v3.082h3.12V3.455H.805c0-1.21.993-2.19 2.216-2.19V.37C1.3.37-.1 1.753-.1 3.455m3.998 0v3.083h3.12V3.455h-2.22c0-1.21.993-2.19 2.22-2.19V.37c-1.725 0-3.12 1.382-3.12 3.084" fill="#B9B9B9" mask="url(#yb)"/></g><g fill="#B9B9B9"><path d="M43.363 19.483h-5.468V1.62h7.18c1.723 0 3.642.05 5.167.933 1.635.99 2.61 2.768 2.61 4.688 0 1.7-.644 3.313-1.948 4.38-1.363 1.124-3.105 1.383-4.797 1.383h-2.744v6.48m1.41-10.313c1.23 0 2.715-.076 2.715-1.75 0-1.584-1.333-1.717-2.563-1.717h-1.562V9.17h1.41m20.393 10.313l-2.563-6.82H60.91v6.82h-5.468V1.62h8.95c1.542 0 3.236.203 4.542 1.098 1.465.93 2.155 2.523 2.155 4.263 0 2.344-1.02 3.754-3.103 4.716l3.177 7.786h-5.998m-2.29-10.648c1.185 0 2.593-.183 2.593-1.72 0-.596-.304-1.17-.84-1.46-.467-.23-1.033-.23-1.544-.23H60.91v3.41h1.967m10.113 10.66h5.44V1.62h-5.44zm11.595-14.37l-.632-1.52h-.957v1.52h-.436V1.62h1.296c.274 0 .548.037.785.21a.993.993 0 0 1 .372.77c0 .41-.247.786-.654.9l.68 1.624h-.453M83.8 3.25c.236 0 .427-.018.595-.202a.608.608 0 0 0 .18-.45c0-.21-.075-.375-.246-.49-.15-.106-.294-.116-.474-.116h-.86V3.25h.804"/><path d="M83.602.337c1.278 0 2.312 1.046 2.312 2.337 0 1.3-1.03 2.34-2.312 2.34-1.276 0-2.305-1.042-2.305-2.34 0-1.29 1.033-2.337 2.305-2.337zm0-.337c-1.455 0-2.637 1.2-2.637 2.674 0 1.484 1.178 2.677 2.637 2.677 1.465 0 2.643-1.19 2.643-2.676C86.245 1.197 85.063 0 83.602 0z"/></g></g></symbol></svg>