<svg width="62" height="20" viewBox="0 0 62 20" xmlns="http://www.w3.org/2000/svg"><g fill="#B9B9B9" fill-rule="evenodd"><path d="M59.99 1.576c.183 0 .365-.007.365-.212 0-.17-.143-.209-.29-.209h-.273v.42h.198zm-.198.665h-.148V1.028h.464c.273 0 .396.119.396.336 0 .214-.143.31-.305.338l.36.54h-.174l-.342-.54h-.251v.54zm-.653-.607c0 .503.377.9.885.9.507 0 .884-.397.884-.9 0-.502-.377-.899-.884-.899-.508 0-.885.397-.885.9zm1.933 0c0 .59-.455 1.05-1.048 1.05s-1.05-.46-1.05-1.05c0-.589.457-1.049 1.05-1.049s1.048.46 1.048 1.05zM.299 20h19.453V.251H0V20h.299zm0-.597l.298.298V.55L.3.848h19.153l-.298-.299v19.152l.298-.298H.3zM19.452 20H38.904V.251h-19.75V20h.298zm0-.597l.3.298V.55l-.3.299h19.153l-.299-.299v19.152l.299-.298H19.452zM38.565 20H58.017V.251H38.267V20h.298zm0-.597l.299.298V.55l-.299.299h19.153L57.42.549v19.152l.298-.298H38.565z"/><path d="M11.736 15.01V9.36c0-.835-.16-1.443-.482-1.828-.32-.382-.845-.575-1.573-.575-.336 0-.695.095-1.077.284-.382.187-.68.423-.895.702v7.067H5.42V5.193h1.65l.422.915c.623-.72 1.543-1.081 2.758-1.081 1.166 0 2.088.349 2.763 1.049.675.697 1.013 1.673 1.013 2.922v6.012h-2.29M28.847 15.204c1.497 0 2.678-.434 3.544-1.301.865-.866 1.296-2.105 1.296-3.709 0-3.444-1.563-5.167-4.693-5.167-.838 0-1.544.276-2.118.825v-.66h-2.29v13.652h2.29v-4.072a4.465 4.465 0 0 0 1.971.432zm-.509-8.22c1.053 0 1.81.237 2.266.71.456.472.684 1.286.684 2.445 0 1.084-.23 1.878-.689 2.38-.46.502-1.217.754-2.27.754-.554 0-1.04-.167-1.453-.503V7.624c.426-.424.913-.64 1.462-.64zM50.716 7.344a2.46 2.46 0 0 0-1.341-.387c-.528 0-.998.24-1.408.722-.411.481-.615 1.068-.615 1.762v5.57h-2.29V5.192h2.29v.938c.638-.737 1.485-1.104 2.544-1.104.776 0 1.372.12 1.786.357l-.966 1.96"/></g></svg>
