<svg xmlns="http://www.w3.org/2000/svg" width="24" height="24" viewBox="0 0 24 24"><g fill="none" stroke="currentColor" stroke-linejoin="round" stroke-miterlimit="10"><path d="M18.5 12.5a6 6 0 0 1-12 0v-6a6 6 0 0 1 12 0v6z"/><path stroke-linecap="round" d="M4.5 10.5v2c0 4.474 3.525 8 8 8 4.473 0 8-3.526 8-8v-2M12.5 20.5v3M12.5.5v3M14.501.842L14.5 3.5M10.5.842V3.5"/><path d="M4.5 12.5h16"/><path stroke-linecap="round" d="M6.5 6.5h4M6.5 8.5h4M18.5 6.5h-4M18.5 8.5h-4M6.5 10.5h4M18.5 10.5h-4"/></g><path fill="none" d="M0 0h24v24H0z"/></svg>